<?xml version="1.0" standalone="no"?>
<!DOCTYPE svg PUBLIC "-//W3C//DTD SVG 20010904//EN"
 "http://www.w3.org/TR/2001/REC-SVG-20010904/DTD/svg10.dtd">
<svg version="1.0" xmlns="http://www.w3.org/2000/svg"
width="190" height="40" viewBox="0 0 599.000000 548.000000"
 preserveAspectRatio="xMidYMid meet">

<g transform="translate(0.000000,548.000000) scale(0.100000,-0.100000)"
fill="#000000" stroke="none">
<path d="M3308 5415 l-768 -60 0 -147 c0 -82 -3 -148 -7 -148 -5 0 -80 -7
-168 -15 -88 -8 -293 -24 -455 -35 -162 -11 -314 -23 -337 -26 l-43 -6 0 105
0 105 63 6 c34 3 77 7 96 9 55 4 -140 71 -199 68 -109 -5 -951 -73 -1207 -98
l-283 -27 0 -1106 0 -1105 93 -36 92 -36 3 317 2 317 53 7 c28 3 60 6 70 6 16
0 17 -33 17 -549 l0 -549 -23 -5 c-12 -3 -86 -11 -164 -18 l-143 -12 0 -831 0
-831 98 -37 c53 -21 174 -64 267 -97 94 -32 199 -69 235 -83 l65 -24 258 21
258 20 -241 90 -242 90 124 8 123 9 222 -85 c122 -47 273 -102 335 -121 62
-20 204 -71 316 -114 l203 -78 142 13 c78 6 166 14 195 17 l52 6 0 -84 0 -83
-146 -13 -146 -13 146 -51 145 -51 261 19 260 20 0 276 0 276 -212 -18 c-117
-9 -221 -17 -230 -17 -17 -1 -18 23 -18 362 l0 363 208 17 c114 10 215 17 225
17 16 0 17 -18 17 -245 l0 -245 23 0 c12 0 115 7 230 17 l207 17 0 437 0 437
63 7 c59 5 814 65 830 65 4 0 7 -196 7 -435 l0 -435 23 0 c12 0 115 7 230 17
l207 17 0 246 0 246 208 17 c114 10 215 17 225 17 16 0 17 -24 17 -359 l0
-358 -77 -7 c-42 -3 -93 -6 -115 -6 l-38 0 0 -215 c0 -118 -3 -215 -7 -216 -5
0 -70 -6 -146 -12 l-137 -12 145 -55 145 -55 260 19 260 20 0 147 c0 169 -6
159 101 159 l69 0 0 134 0 133 68 6 c37 4 113 10 170 13 l102 7 0 831 0 832
-147 -13 c-82 -6 -158 -12 -170 -12 l-23 -1 0 1008 0 1007 -532 203 c-293 111
-605 227 -693 257 -88 30 -200 70 -250 88 l-90 34 -3 81 c-2 62 0 82 10 83 7
0 104 8 216 17 l203 17 -128 48 c-70 26 -168 60 -218 75 l-90 28 -767 -61z
m-2978 -4293 l0 -177 83 -31 82 -31 3 -65 3 -65 97 -29 97 -29 -220 -22 c-121
-12 -235 -22 -252 -22 l-33 -1 0 319 0 320 38 4 c20 2 52 4 70 5 l32 2 0 -178z"/>
</g>
</svg>
